<mxfile host="app.diagrams.net" modified="2024-06-07T06:42:07.528Z" agent="Mozilla/5.0 (Macintosh; Intel Mac OS X 10_15_7) AppleWebKit/605.1.15 (KHTML, like Gecko) Version/17.1 Safari/605.1.15" version="24.2.5" etag="vD13Y-ow5DXS45ncqmjR" type="github">
  <diagram name="Page-1" id="29aMhVAnox7Vw36ihUPS">
    <mxGraphModel>
      <root>
        <mxCell id="0" />
        <mxCell id="1" parent="0" />
      </root>
    </mxGraphModel>
  </diagram>
</mxfile>
